<svg id="bcbf1bf3-2d43-4c4e-ab6f-99d9d60f9f50" data-name="Layer 1" xmlns="http://www.w3.org/2000/svg" width="196.02" height="159.49" viewBox="0 0 196.02 159.49"><title>blender</title><path d="M197.45,109.57a58.56,58.56,0,0,0-8.34-22.81,63.66,63.66,0,0,0-14.57-16.25v0L113.1,23.29l-.14-.11a12.82,12.82,0,0,0-7.78-2.42,14.15,14.15,0,0,0-8.09,2.43,8.18,8.18,0,0,0-3.87,6.27,7.39,7.39,0,0,0,3,6c4,3.12,7.9,6.31,11.85,9.5s7.78,6.29,11.72,9.4l-75.27,0c-8.61,0-14.47,4-15.67,10.81a10.85,10.85,0,0,0,2.49,8.72,11.61,11.61,0,0,0,9.06,4.1h5.74c7.93,0,15.89,0,23.84,0l7.58,0L9.23,128.43l-.27.2a17.28,17.28,0,0,0-6.85,11.25,11.15,11.15,0,0,0,2.16,8.46,11.74,11.74,0,0,0,9.54,4.31,18.12,18.12,0,0,0,11.26-4.18L62,118.28a48.88,48.88,0,0,0-.33,5.21A49.3,49.3,0,0,0,63.73,135,60.42,60.42,0,0,0,76.8,157.62,67.34,67.34,0,0,0,99.62,174a73.24,73.24,0,0,0,29.86,6.23h.1a73.38,73.38,0,0,0,29.95-6.33,67.87,67.87,0,0,0,22.81-16.46,61,61,0,0,0,13-22.66,58,58,0,0,0,2.46-12.66,58.75,58.75,0,0,0-.4-12.56Zm-67.2,39.88c-23.07,0-41.78-16.74-41.78-37.38s18.71-37.38,41.78-37.38S172,91.42,172,112.07,153.32,149.45,130.25,149.45Zm24.09-40.67a20.83,20.83,0,0,1-6.45,16.12,25.75,25.75,0,0,1-35.36,0,20.82,20.82,0,0,1-6.44-16.11,21.23,21.23,0,0,1,7.65-15,25.87,25.87,0,0,1,32.94,0,21.27,21.27,0,0,1,7.66,15Z" transform="translate(-2 -20.76)"/></svg>