<svg id="Layer_1" data-name="Layer 1" xmlns="http://www.w3.org/2000/svg" width="100mm" height="100mm" viewBox="0 0 283.46 283.46">
  <defs>
    <style>
      .cls-1 {
        fill: #579241;
      }

      .cls-2 {
        fill: #fff;
      }
    </style>
  </defs>
  <title>gh</title>
  <rect class="cls-1" width="283.46" height="283.46"/>
  <path class="cls-2" d="M72.87,270.39s-7.06,3.92-4-1,12.81-18.91,12.81-18.91-.26-2.35,1.22-3.57a47.6,47.6,0,0,0,4.62-5.41l24.93-50.29s1.94-3.07,2-4.11,2-5.56,7.15-7.13,11-7.41,11-7.41S156.8,148,162.42,145.89s5.45-8.5,3.18-6.32a76.78,76.78,0,0,1-15.16,10.2c-6.1,3-13.34,9.41-13.34,9.41s-7.58,4.18-12.46,4.53a65.93,65.93,0,0,1-11.68-.52c-.43-.09-.52-4.44,1.66-6.45s5.49-3.57,6.1-7.06,3.75-10.37,5.93-11.42,4.4-10.41,14.2-16.82c4.84-3.92-14.38-1.3-14.38-1.3L89.34,121s-4.35,1.74-7.75,1.13-6.54,2.27-6.54,2.27-7,7.23-10.94,9.71-15.29,10.72-17,12.95-6.93,2.74-6.93,2.74l-15.43-.91s-.91-2.23,1.83-2,9.81,1.43,11.11.52S52.35,140.14,55,137.13s9.54-6,13.21-10.33,6.92-9.54,11.37-10.32,21.57.52,25.62,0,16.21-2.1,17.78-2.88,9.55-1.57,10.72-1.57h15.69s9.8-9,12.42-12.81S173.45,87,175.71,86.84s2.92-2.92,2.92-2.92-1.35-7.71-3.44-9.45C174.91,70,179,72.29,179,72.29s2.15,2.81,3.07,3.2,1.76.33,1.37-.91-2.42-3.34-2.61-4.64,1.63-3.93,3.33-1.57.46,4,.46,4-.79,3,.78,4,2.42.66,2.42-.13-.78-2,0-2.94,4.05-2.42,4.9-1.57,2.42-.06,2.81-.13a5.13,5.13,0,0,1,1.57.46s-.85-47.33-4.38-52.56c4.38.53,4.38,7.46,4.38,7.46s2.42,41.57,2.29,44.31c0,2.27.74,3.27,2.13,2.79s8.59-14.94,38.53-24.36c2,1.57,0,2.29,0,2.29S217.76,59.78,203,75c-1,1.53,2.92,8.07,2.92,8.07s3.92,9-6.1,10.45a4.42,4.42,0,0,0,.61,7.41c2.44,1.14,3.05,2,5.75,2.36s8.72.69,12.2,2.35c1.75-2.53,5.84-2.35,5.84-2.35l7.41-.35.87-2.53,4.27,3s.26,2.44-1.83,2.27-4.09-1-5.75.08a7.56,7.56,0,0,0-2.79,3.31c-.17.53-1,3.23-7.67,1.57s-14-6.18-21.79-4.88-6.75,7.37-5.71,17.7,1.7,24.18.92,27.06a132,132,0,0,0,12.81,13.33,18.85,18.85,0,0,1,5.36,6.15,28,28,0,0,0,6.54,8.3c7.59,6.53,2.27,9.33-1.9,3.66-.77-1.06-5.95-6.47-5.95-6.47s-4.18-7.72-16.08-18.57-6.14-18.82-6.14-18.82,2.74-8.89.13-11.51a3.85,3.85,0,0,0-5.36-.13S175,141.93,169.09,148s-11.68,12.72-16.21,15-22,15-22,15l-5.06,4.7a5,5,0,0,1-2.26,5.93,12.06,12.06,0,0,1-7,1.92s-23.48,49.59-26.88,53.77-1.83,7.32-1.83,7.32-2.1-.65-3.14.66S72.87,270.39,72.87,270.39Z"/>
</svg>
