<svg id="Layer_1" data-name="Layer 1" xmlns="http://www.w3.org/2000/svg" width="19.55cm" height="19.55cm" viewBox="0 0 554.31 554.31">
  <defs>
    <style>
      .cls-1 {
        fill: #41322a;
      }

      .cls-2 {
        fill: #ff7e1b;
      }

      .cls-3 {
        fill: none;
        stroke: #ff7e1b;
        stroke-miterlimit: 10;
        stroke-width: 10px;
      }
    </style>
  </defs>
  <title>illustrator</title>
  <path class="cls-1" d="M534.89,178.81A271.22,271.22,0,0,1,475.6,475.2a271.15,271.15,0,0,1-384.71,0,271.06,271.06,0,0,1,0-384.71,271.1,271.1,0,0,1,384.71,0A269.77,269.77,0,0,1,534.89,178.81Zm-124.5,221V226.42c0-1.65-.65-2.47-1.93-2.47H373.23c-1.83,0-2.76.75-2.76,2.19l.29,173.65a2.43,2.43,0,0,0,2.75,2.76h34.38C409.56,402.55,410.39,401.62,410.39,399.79Zm2.18-223.17q0-20.1-22-22.57c-6.61,0-12.07,2-16.39,5.92s-6.46,9.5-6.46,16.65q0,21.47,22.29,22.57,9.92,0,16.23-5.92C410.46,189.31,412.57,183.78,412.57,176.62Zm-76.5,225.93c1.1,0,1.67-.47,1.67-1.39q0-.54-35.1-120.26T267,160.8q-.54-.44-48.43-.41c-.9,0-1.36.72-1.36,2.18a88.31,88.31,0,0,1-1,11.58q-.66,3.82-32.61,116.12-31.34,109.51-31.37,110.35a2.3,2.3,0,0,0,.41,1.52c.29.28,6.28.41,18,.41,12.1,0,18.35-.13,18.71-.41s6.51-22.8,18.43-67.56h69.89l18.46,66.58c.36.92,1.36,1.39,3,1.39Z" transform="translate(-6.09 -5.69)"/>
  <path class="cls-2" d="M410.39,226.42V399.79c0,1.83-.83,2.76-2.5,2.76H373.51a2.43,2.43,0,0,1-2.75-2.76l-.29-173.65c0-1.44.93-2.19,2.76-2.19h35.23C409.74,224,410.39,224.77,410.39,226.42Z" transform="translate(-6.09 -5.69)"/>
  <path class="cls-2" d="M390.57,154.05q22,2.47,22,22.57c0,7.16-2.11,12.69-6.33,16.65s-9.62,5.92-16.23,5.92q-22.27-1.11-22.29-22.57,0-10.73,6.46-16.65C378.5,156,384,154.05,390.57,154.05Z" transform="translate(-6.09 -5.69)"/>
  <path class="cls-2" d="M337.74,401.16c0,.92-.57,1.39-1.67,1.39H299.19c-1.65,0-2.65-.47-3-1.39l-18.46-66.58H207.83Q190,401.72,189.4,402.14c-.36.28-6.61.41-18.71.41-11.76,0-17.75-.13-18-.41a2.3,2.3,0,0,1-.41-1.52q0-.81,31.37-110.35Q215.55,178,216.22,174.15a88.31,88.31,0,0,0,1-11.58c0-1.46.46-2.18,1.36-2.18q47.91,0,48.43.41t35.65,120.1Q337.73,400.65,337.74,401.16ZM268.67,299.07l-7.16-29.16q-14.06-53.39-18.73-74.58h-.54Q236.18,227,216.91,299.07Z" transform="translate(-6.09 -5.69)"/>
  <path class="cls-1" d="M261.51,269.91l7.16,29.16H216.91Q236.19,227,242.24,195.33h.54Q247.45,216.53,261.51,269.91Z" transform="translate(-6.09 -5.69)"/>
  <path class="cls-3" d="M179.21,534.49A271.59,271.59,0,0,1,11.09,282.83,271.59,271.59,0,0,1,283.23,10.69,271.68,271.68,0,0,1,555.4,282.83,271.71,271.71,0,0,1,283.23,555,269.53,269.53,0,0,1,179.21,534.49Z" transform="translate(-6.09 -5.69)"/>
</svg>
