<svg id="Layer_1" data-name="Layer 1" xmlns="http://www.w3.org/2000/svg" width="19.26cm" height="19.26cm" viewBox="0 0 545.91 545.91">
  <defs>
    <style>
      .cls-1 {
        fill: #412534;
      }

      .cls-2 {
        fill: #eb43a3;
      }

      .cls-3 {
        fill: none;
        stroke: #eb43a3;
        stroke-miterlimit: 10;
        stroke-width: 10px;
      }
    </style>
  </defs>
  <title>indesign</title>
  <path class="cls-1" d="M530.92,181.62a266.94,266.94,0,0,1-58.4,291.81,267,267,0,0,1-378.77,0,267,267,0,0,1,0-378.77,266.89,266.89,0,0,1,378.77,0A265.25,265.25,0,0,1,530.92,181.62ZM401.55,400l2.43-.53q-2.43-10.83-2.43-251.17H380.14q-20.86,0-20.85,1.34v64.23H346.82q-45.79,0-72.21,29.27t-26.43,72.33q0,49.3,25.62,74.37t64.89,25.06Q366.59,414.9,401.55,400Zm-197-218.1q0-32.51-.28-33.07t-20.88-.53q-20,0-20.85.53t-.81,130.34q0,129.21.81,130.31t19.79,1.09c13.7,0,20.85-.41,21.38-1.22S204.58,332.73,204.58,181.9Z" transform="translate(-10.18 -11.09)"/>
  <path class="cls-2" d="M344.13,250.43q-46.36.15-53.13,62.87Q291,377,341.4,377q10.56,0,17.33-3V252.61Q358.73,250.48,344.13,250.43Zm59.85,149-2.43.53q-35,14.89-62.86,14.9-39.3,0-64.89-25.06t-25.62-74.37q0-43.1,26.43-72.33t72.21-29.27h12.47V149.64q0-1.33,20.85-1.34h21.41Q401.55,388.62,404,399.47Z" transform="translate(-10.18 -11.09)"/>
  <path class="cls-1" d="M358.73,252.61V374q-6.76,3-17.33,3Q291,377,291,313.3q6.76-62.71,53.13-62.87Q358.73,250.48,358.73,252.61Z" transform="translate(-10.18 -11.09)"/>
  <path class="cls-2" d="M204.3,148.83q.25.57.28,33.07,0,226.24-.84,227.45c-.53.81-7.68,1.22-21.38,1.22q-19,0-19.79-1.09t-.81-130.31q0-129.8.81-130.34t20.85-.53Q204,148.3,204.3,148.83Z" transform="translate(-10.18 -11.09)"/>
  <path class="cls-3" d="M180.73,531.81A267.5,267.5,0,0,1,15.18,284a267.44,267.44,0,0,1,268-267.94A267.42,267.42,0,0,1,551.09,284,267.48,267.48,0,0,1,283.15,552,265.27,265.27,0,0,1,180.73,531.81Z" transform="translate(-10.18 -11.09)"/>
</svg>
