<?xml version="1.0" encoding="utf-8"?>
<!-- Generator: Adobe Illustrator 23.0.3, SVG Export Plug-In . SVG Version: 6.00 Build 0)  -->
<svg version="1.1"
	 id="svg3509" xmlns:cc="http://creativecommons.org/ns#" xmlns:dc="http://purl.org/dc/elements/1.1/" xmlns:inkscape="http://www.inkscape.org/namespaces/inkscape" xmlns:rdf="http://www.w3.org/1999/02/22-rdf-syntax-ns#" xmlns:sodipodi="http://sodipodi.sourceforge.net/DTD/sodipodi-0.dtd" xmlns:svg="http://www.w3.org/2000/svg"
	 xmlns="http://www.w3.org/2000/svg" xmlns:xlink="http://www.w3.org/1999/xlink" x="0px" y="0px" viewBox="0 0 566.9 566.9"
	 style="enable-background:new 0 0 566.9 566.9;" xml:space="preserve">
<style type="text/css">
	.st0{fill:#314CB0;stroke:#1D2D68;stroke-width:4.8505;}
	.st1{fill:#FFFFFF;}
	.st2{fill:#314CB0;}
	.st3{fill:#FF7700;}
</style>
<sodipodi:namedview  bordercolor="#666666" borderopacity="1.0" fit-margin-bottom="0" fit-margin-left="0" fit-margin-right="0" fit-margin-top="0" id="base" inkscape:current-layer="layer1" inkscape:cx="134.88004" inkscape:cy="75.43884" inkscape:document-units="px" inkscape:guide-bbox="true" inkscape:pageopacity="0.0" inkscape:pageshadow="2" inkscape:snap-grids="false" inkscape:snap-to-guides="false" inkscape:window-height="761" inkscape:window-maximized="0" inkscape:window-width="1276" inkscape:window-x="0" inkscape:window-y="18" inkscape:zoom="1.4" pagecolor="#ffffff" showgrid="true" showguides="true">
	</sodipodi:namedview>
<g id="layer1" transform="translate(-40.547253,-883.62366)" inkscape:groupmode="layer" inkscape:label="Layer 1">
	<path id="rect3438-4-1-6-9-8-4" inkscape:connector-curvature="0" class="st0" d="M82.3,951h485.9c2.2,0,3.9,1.8,3.9,4.1v466.4
		c0,2.3-1.8,4.1-3.9,4.1H82.3c-2.2,0-3.9-1.8-3.9-4.1V955.1C78.3,952.8,80.1,951,82.3,951z"/>
	<path id="path3008" inkscape:connector-curvature="0" class="st1" d="M203.7,1147.6l71.9-90.9c14.7-18.5,22-32.4,22-41.6
		c0-3.3-0.4-6-1.3-8h125.5c-9.5,5.3-21.5,16.6-35.8,33.8c-3.8,4.5-10.6,12.8-20.3,24.8l-94.2,117.3l112.5,154.8
		c6.8,9.4,15.5,19.9,26.1,31.6c2.8,3,6.9,6.6,12.3,10.8H293.6c1-3.8,1.5-7.3,1.5-10.3c0-9.2-6.3-22.5-19-39.8l-72.4-98.7v100
		c0,23.2,4.7,39.5,14,48.9H100c6.5-6.5,10.7-13.9,12.5-22.3c1-4.7,1.5-13.4,1.5-26.3v-275.8c0-12.9-0.5-21.6-1.5-26.3
		c-1.8-8.4-6-15.8-12.5-22.3h117.8c-9.4,9.4-14,25.6-14,48.6V1147.6"/>
	<path id="path3010" inkscape:connector-curvature="0" class="st1" d="M540.2,1106v230c0,12,0.3,19.9,1,23.6
		c1.3,7.5,4.8,14.4,10.5,20.5H441.5c5.7-6.2,9.2-13,10.5-20.5c0.7-3.7,1-11.5,1-23.6v-186.4c0-12-0.3-19.8-1-23.3
		c-1.3-7.3-4.8-14.1-10.3-20.3L540.2,1106 M496.6,975c13.9,0,25.6,4.9,35.3,14.8c9.9,9.7,14.8,21.5,14.8,35.3
		c0,14.2-4.8,26.1-14.5,35.8c-9.5,9.5-21.4,14.3-35.6,14.3c-13.9,0-25.7-4.8-35.6-14.5c-9.7-9.9-14.5-21.7-14.5-35.6
		c0-14.2,4.8-26.1,14.3-35.6C470.4,979.8,482.4,975,496.6,975"/>
	<path id="rect4352-5-1" inkscape:connector-curvature="0" class="st2" d="M437.4,970.8h120.3v114.8H437.4V970.8z"/>
	<path id="path3552-6-3-7" inkscape:connector-curvature="0" class="st3" d="M547.3,951.1c0,28-22.8,50.8-50.9,50.8
		c-28.1,0-50.9-22.7-50.9-50.8s22.8-50.8,50.9-50.8C524.5,900.3,547.3,923.1,547.3,951.1z"/>
</g>
</svg>
