<svg id="Layer_1" data-name="Layer 1" xmlns="http://www.w3.org/2000/svg" width="19.41cm" height="19.41cm" viewBox="0 0 550.34 550.31">
  <defs>
    <style>
      .cls-1 {
        fill: #28253a;
      }

      .cls-2 {
        fill: #37c5ff;
      }

      .cls-3 {
        fill: none;
        stroke: #37c5ff;
        stroke-miterlimit: 10;
        stroke-width: 10px;
      }
    </style>
  </defs>
  <title>photoshop</title>
  <path class="cls-1" d="M533.57,179.58a269.11,269.11,0,0,1-58.88,294.2,269.18,269.18,0,0,1-381.88,0,269.15,269.15,0,0,1,0-381.88,269.09,269.09,0,0,1,381.88,0A267.67,267.67,0,0,1,533.57,179.58ZM419,333.1q0-18-10.65-27.87-10.92-10.07-38.8-16.65-27-6.82-31.68-10.65a8.23,8.23,0,0,1-3.27-6.57c0-3.45,1.25-6,3.81-7.64,3.83-2.91,10.19-4.37,19.13-4.37q10.92,0,16.94,4.63c3.83,2.94,6.36,7.13,7.63,12.57L414.6,270q-4.94-18.85-18-28.15Q384,232.32,357,232.3q-27.89,0-41.25,12.85a40.77,40.77,0,0,0-13.11,30.58q0,20.5,15.28,31.7,11.22,8.47,53,18.57,8.46,2.46,11.18,4.91a11.81,11.81,0,0,1,2.2,7.1c0,4.21-1.38,7.48-4.09,9.83q-6.85,5.49-19.95,5.47-12.57,0-19.13-5.72t-8.74-16.68l-35,5.75q5.22,20.49,20.49,31.95,15.6,12,41.79,12,29.24,0,44.27-13.94Q419,352.51,419,333.1Zm-133-91.24q0-23.19-10.65-38-10.38-14.76-25.67-19.14-9.86-2.72-43.18-2.71H148.8v195.3h36.07V303.6h23.76q24.6,0,37.14-2.73a57.34,57.34,0,0,0,19.14-9q9.27-7.1,15.3-19.67Q285.92,259.88,285.93,241.86Z" transform="translate(-8.59 -7.69)"/>
  <path class="cls-2" d="M408.32,305.23Q419,315.09,419,333.1q0,19.39-15,33.6-15,13.95-44.27,13.94-26.21,0-41.79-12-15.28-11.46-20.49-31.95l35-5.75q2.19,10.95,8.74,16.68t19.13,5.72q13.11,0,19.95-5.47c2.71-2.35,4.09-5.62,4.09-9.83a11.81,11.81,0,0,0-2.2-7.1q-2.71-2.46-11.18-4.91-41.81-10.11-53-18.57-15.28-11.22-15.28-31.7a40.77,40.77,0,0,1,13.11-30.58Q329.09,232.31,357,232.3q27,0,39.6,9.56,13.11,9.3,18,28.15l-32.52,6.54c-1.27-5.44-3.8-9.63-7.63-12.57q-6-4.64-16.94-4.63c-8.94,0-15.3,1.46-19.13,4.37-2.56,1.64-3.81,4.19-3.81,7.64a8.23,8.23,0,0,0,3.27,6.57q4.64,3.82,31.68,10.65Q397.38,295.14,408.32,305.23Z" transform="translate(-8.59 -7.69)"/>
  <path class="cls-2" d="M275.28,203.9q10.65,14.74,10.65,38,0,18-5.72,30.32-6,12.57-15.3,19.67a57.34,57.34,0,0,1-19.14,9q-12.57,2.72-37.14,2.73H184.87v73.75H148.8V182.05h57.63q33.34,0,43.18,2.71Q264.9,189.17,275.28,203.9ZM244.7,257.72a28.55,28.55,0,0,0,4.37-15.58c0-6.93-2.12-12.65-6.28-17.22A24.51,24.51,0,0,0,228,216.46q-6.28-1.64-25.67-1.63H184.87v55.43h19.67q21.59,0,28.67-2.71A30.25,30.25,0,0,0,244.7,257.72Z" transform="translate(-8.59 -7.69)"/>
  <path class="cls-1" d="M249.07,242.14a28.55,28.55,0,0,1-4.37,15.58,30.25,30.25,0,0,1-11.49,9.83q-7.1,2.73-28.67,2.71H184.87V214.83h17.48q19.38,0,25.67,1.63a24.51,24.51,0,0,1,14.77,8.46C247,229.49,249.07,235.21,249.07,242.14Z" transform="translate(-8.59 -7.69)"/>
  <path class="cls-3" d="M180.51,532.64A269.7,269.7,0,0,1,13.59,282.83,269.64,269.64,0,0,1,283.76,12.69,269.69,269.69,0,0,1,553.93,282.83,269.73,269.73,0,0,1,283.76,553,267.39,267.39,0,0,1,180.51,532.64Z" transform="translate(-8.59 -7.69)"/>
</svg>
