<svg id="Layer_1" data-name="Layer 1" xmlns="http://www.w3.org/2000/svg" width="19.41cm" height="19.41cm" viewBox="0 0 550.09 550.09">
  <defs>
    <style>
      .cls-1 {
        fill: #1b0124;
      }

      .cls-2 {
        fill: #df76ff;
      }

      .cls-3 {
        fill: none;
        stroke: #df76ff;
        stroke-miterlimit: 10;
        stroke-width: 10px;
      }
    </style>
  </defs>
  <title>premiere</title>
  <path class="cls-1" d="M532.66,182.82A269,269,0,0,1,473.81,476.9a269.07,269.07,0,0,1-381.73,0,269.05,269.05,0,0,1,0-381.72,269,269,0,0,1,381.73,0A267.68,267.68,0,0,1,532.66,182.82ZM418.11,241.27c0-11.85-.92-17.75-2.73-17.75q-62.82,1.6-82.73,15.83l-1.1,1.92q1.11,18,1.1,91.87t.82,74.28c.53.26,7.17.41,19.94.41l19.1-.28.82-143.35q14.48-4.36,42.05-4.65Q418.1,259.55,418.11,241.27Zm-121.24-2.48q0-32.74-21.42-55.41t-67.87-22.67q-32.22,0-57.33,1.09-2.17,0-2.19,124,0,122.87.56,123.41c.36.35,6.89.53,19.64.53l18.84-.53q1.38-.81,1.38-88.2Q296.87,321,296.87,238.79Z" transform="translate(-7.9 -11)"/>
  <path class="cls-2" d="M415.38,223.52c1.81,0,2.73,5.9,2.73,17.75q0,18.27-2.73,18.28-27.57.27-42.05,4.65l-.82,143.35-19.1.28c-12.77,0-19.41-.15-19.94-.41s-.82-25.05-.82-74.28-.36-79.87-1.1-91.87l1.1-1.92Q352.57,225.15,415.38,223.52Z" transform="translate(-7.9 -11)"/>
  <path class="cls-2" d="M275.45,183.38q21.41,22.63,21.42,55.41,0,82.2-108.39,82.2,0,87.36-1.38,88.2l-18.84.53c-12.75,0-19.28-.18-19.64-.53s-.56-41.5-.56-123.41q0-124,2.19-124,25.09-1.06,57.33-1.09Q254,160.71,275.45,183.38Zm-69.22,101.3q52.43,0,52.42-45.33-4.09-42.58-49.44-43.41l-20.48,1.64-.25,87.1Z" transform="translate(-7.9 -11)"/>
  <path class="cls-1" d="M258.65,239.35q0,45.32-52.42,45.33H188.48l.25-87.1,20.48-1.64Q254.57,196.75,258.65,239.35Z" transform="translate(-7.9 -11)"/>
  <path class="cls-3" d="M179.75,535.74A269.61,269.61,0,0,1,12.9,286,269.55,269.55,0,0,1,283,16,269.51,269.51,0,0,1,553,286,269.57,269.57,0,0,1,283,556.09,267.19,267.19,0,0,1,179.75,535.74Z" transform="translate(-7.9 -11)"/>
</svg>
