<svg id="Layer_1" data-name="Layer 1" xmlns="http://www.w3.org/2000/svg" xmlns:xlink="http://www.w3.org/1999/xlink" width="20.39cm" height="18.87cm" viewBox="0 0 578.1 534.77">
  <defs>
    <style>
      .cls-1 {
        fill: none;
      }

      .cls-2 {
        clip-path: url(#clip-path);
      }

      .cls-3 {
        clip-path: url(#clip-path-2);
      }

      .cls-4 {
        fill: #071a2c;
      }

      .cls-5 {
        fill: #062541;
      }

      .cls-6 {
        fill: #0d2b4c;
      }

      .cls-7 {
        fill: #102f51;
      }

      .cls-8 {
        fill: #8098ab;
      }

      .cls-9 {
        fill: #fff;
      }
    </style>
    <clipPath id="clip-path" transform="translate(21.17 1.77)">
      <rect class="cls-1" x="30.11" y="27.25" width="506.78" height="505.75"/>
    </clipPath>
    <clipPath id="clip-path-2" transform="translate(21.17 1.77)">
      <path class="cls-1" d="M103.69,27.25H463.31a73.58,73.58,0,0,1,73.58,73.59V459.42A73.58,73.58,0,0,1,463.31,533H103.69a73.58,73.58,0,0,1-73.58-73.58V100.84a73.58,73.58,0,0,1,73.58-73.59"/>
    </clipPath>
  </defs>
  <title>processing</title>
  <g>
    <g class="cls-2">
      <path d="M103.69,27.25H463.31a73.58,73.58,0,0,1,73.58,73.59V459.42A73.58,73.58,0,0,1,463.31,533H103.69a73.58,73.58,0,0,1-73.58-73.58V100.84a73.58,73.58,0,0,1,73.58-73.59" transform="translate(21.17 1.77)"/>
    </g>
    <g class="cls-3">
      <path class="cls-4" d="M30.11,133.92h0V425.19h0V379.73A81.95,81.95,0,0,1,134,446.81,168.44,168.44,0,0,0,279.72,312.67a80,80,0,0,1-21.61-54.81v0a80,80,0,0,1,12.17-42.54,168.61,168.61,0,0,0-44.69-62.36,79.66,79.66,0,0,1-33.41-18.71,79.19,79.19,0,0,1-17.49,6.13c.34,4.74.51,9.54.51,14.37A199.05,199.05,0,0,1,30.11,346.32V133.92" transform="translate(21.17 1.77)"/>
    </g>
    <g class="cls-3">
      <path class="cls-4" d="M167,71.59c-1.9.13-3.8.2-5.73.2-1.41,0-2.81,0-4.21-.11a197.28,197.28,0,0,1,15.33,49.7c4.28,1.56,8.48,3.3,12.58,5.19A79.49,79.49,0,0,1,166.91,76h0c0-1.47,0-2.92.12-4.37" transform="translate(21.17 1.77)"/>
      <path class="cls-5" d="M172.42,121.38q1.58,9.34,2.27,19a79.19,79.19,0,0,0,17.49-6.13,81.32,81.32,0,0,1-7.18-7.66c-4.1-1.89-8.3-3.63-12.58-5.19" transform="translate(21.17 1.77)"/>
      <path class="cls-4" d="M418.55,141.35c.13,1.84.2,3.71.2,5.59h0a80.1,80.1,0,0,1-22.2,55.45,80.08,80.08,0,0,1,22.2,55.43h0a79.9,79.9,0,0,1-13.48,44.55,80.83,80.83,0,0,0,70.87-27.89,81,81,0,0,1,13.95-81.37c-.64-1.68-1.35-3.35-2.1-5a81.67,81.67,0,0,1-8.28-14,80.73,80.73,0,0,0-61.16-32.83" transform="translate(21.17 1.77)"/>
      <path class="cls-4" d="M261.16,67a81,81,0,0,1-22.91,3.29H237a80.36,80.36,0,0,1-40.86,61.88,168.69,168.69,0,0,1,29.49,20.75,80,80,0,0,0,21.12,2.82h0a80.4,80.4,0,0,0,11.79-.86q-.39-3.92-.39-7.93v0a80.14,80.14,0,0,1,27.57-60.58A81.08,81.08,0,0,1,261.16,67" transform="translate(21.17 1.77)"/>
      <path class="cls-5" d="M196.1,132.19c-1.28.72-2.59,1.4-3.92,2a79.66,79.66,0,0,0,33.41,18.71,168.69,168.69,0,0,0-29.49-20.75" transform="translate(21.17 1.77)"/>
      <path class="cls-5" d="M201.12,61.31A80.44,80.44,0,0,1,167,71.59c-.08,1.45-.12,2.9-.12,4.37h0A79.49,79.49,0,0,0,185,126.57q5.67,2.61,11.1,5.62A80.36,80.36,0,0,0,237,70.31a80.46,80.46,0,0,1-35.84-9" transform="translate(21.17 1.77)"/>
      <path class="cls-6" d="M185,126.57a81.32,81.32,0,0,0,7.18,7.66c1.33-.64,2.64-1.32,3.92-2q-5.43-3-11.1-5.62" transform="translate(21.17 1.77)"/>
      <path class="cls-4" d="M30.11,425.19v34.23a73.61,73.61,0,0,0,59.4,72.22A82,82,0,0,0,134,446.81a169.3,169.3,0,0,1-19.35,1.1,167.53,167.53,0,0,1-84.51-22.72" transform="translate(21.17 1.77)"/>
      <path class="cls-5" d="M52.91,376.51a81.73,81.73,0,0,0-22.8,3.22v45.46a167.53,167.53,0,0,0,84.51,22.72,169.3,169.3,0,0,0,19.35-1.1,81.88,81.88,0,0,0-81.06-70.3" transform="translate(21.17 1.77)"/>
      <path class="cls-4" d="M443.85,135.58a80.81,80.81,0,0,0,29.62,18.62,82.13,82.13,0,0,1-1.18-12,83.54,83.54,0,0,1-28.44-6.59" transform="translate(21.17 1.77)"/>
      <path class="cls-4" d="M392.94,54.12a81.09,81.09,0,0,1-17.6,21.47,80.48,80.48,0,0,1,41.75,55,81,81,0,0,0,13.4-2.23,83.88,83.88,0,0,1-37.65-70c0-1.41,0-2.82.1-4.22" transform="translate(21.17 1.77)"/>
      <path class="cls-4" d="M436.09,126.74q-2.74.92-5.6,1.65a84.09,84.09,0,0,0,13.36,7.19,81.54,81.54,0,0,1-7.76-8.84" transform="translate(21.17 1.77)"/>
      <path class="cls-5" d="M489.26,32a81,81,0,0,1-53.17,94.78,81.54,81.54,0,0,0,7.76,8.84,83.54,83.54,0,0,0,28.44,6.59c0-.64,0-1.28,0-1.93a80.89,80.89,0,0,1,54.61-76.49A73.89,73.89,0,0,0,489.26,32" transform="translate(21.17 1.77)"/>
      <path class="cls-5" d="M437.72,27.25H402.34a80.4,80.4,0,0,1-9.4,26.87c-.07,1.4-.1,2.81-.1,4.22a83.88,83.88,0,0,0,37.65,70q2.85-.73,5.6-1.65a80.86,80.86,0,0,1,1.63-99.49" transform="translate(21.17 1.77)"/>
      <path class="cls-6" d="M463.31,27.25H437.72a80.86,80.86,0,0,0-1.63,99.49A81,81,0,0,0,489.26,32a73.48,73.48,0,0,0-25.95-4.71" transform="translate(21.17 1.77)"/>
      <path class="cls-4" d="M83.31,30.11a73.61,73.61,0,0,0-53.2,70.73v33.08a167.12,167.12,0,0,1,64.42-21.53A80,80,0,0,1,76.75,62v0a79.8,79.8,0,0,1,6.56-31.86" transform="translate(21.17 1.77)"/>
      <path class="cls-5" d="M94.53,112.39a167.12,167.12,0,0,0-64.42,21.53v212.4A199.05,199.05,0,0,0,175.2,154.73c0-4.83-.17-9.63-.51-14.37a80.56,80.56,0,0,1-17.62,1.94h0a80.17,80.17,0,0,1-62.53-29.91" transform="translate(21.17 1.77)"/>
      <path class="cls-5" d="M103.51,27.25a74,74,0,0,0-20.2,2.86A79.8,79.8,0,0,0,76.75,62v0a80,80,0,0,0,17.78,50.4,169.43,169.43,0,0,1,77.89,9,197.28,197.28,0,0,0-15.33-49.7,80.87,80.87,0,0,1-67.36-43.1,73.66,73.66,0,0,1,13.78-1.33" transform="translate(21.17 1.77)"/>
      <path class="cls-6" d="M114.62,111.2a168.81,168.81,0,0,0-20.09,1.19,80.17,80.17,0,0,0,62.53,29.91h0a80.56,80.56,0,0,0,17.62-1.94q-.69-9.63-2.27-19a168,168,0,0,0-57.8-10.18" transform="translate(21.17 1.77)"/>
      <path class="cls-4" d="M280.31,202.4a81.07,81.07,0,0,0-10,12.9,169.2,169.2,0,0,1,9.44,97.37,80.13,80.13,0,0,0,58.71,25.5h0a80.22,80.22,0,0,0,66.83-35.78,80.84,80.84,0,0,1-71.35-75.23,80.13,80.13,0,0,1-53.61-24.76" transform="translate(21.17 1.77)"/>
      <path class="cls-5" d="M270.28,215.3a80,80,0,0,0-12.17,42.54v0a80,80,0,0,0,21.61,54.81,169.2,169.2,0,0,0-9.44-97.37" transform="translate(21.17 1.77)"/>
      <path class="cls-5" d="M396.55,202.4a80.09,80.09,0,0,1-58.11,24.88h0c-1.52,0-3,0-4.51-.12a80.84,80.84,0,0,0,71.35,75.23,79.9,79.9,0,0,0,13.48-44.55h0a80.08,80.08,0,0,0-22.2-55.43" transform="translate(21.17 1.77)"/>
      <path class="cls-5" d="M242.7,27.25h-9.15q-1.05,2.09-2.21,4.09a80.1,80.1,0,0,1,6,30.61v0a82,82,0,0,1-.42,8.34h1.29A81,81,0,0,0,261.16,67,80.51,80.51,0,0,1,242.7,27.25" transform="translate(21.17 1.77)"/>
      <path class="cls-6" d="M231.34,31.34a81.22,81.22,0,0,1-30.22,30,80.46,80.46,0,0,0,35.84,9,82,82,0,0,0,.42-8.34v0a80.1,80.1,0,0,0-6-30.61" transform="translate(21.17 1.77)"/>
    </g>
    <g class="cls-3">
      <path class="cls-4" d="M323.11,52.85a79.66,79.66,0,0,1,3,14.72c1.75-.27,3.53-.48,5.31-.64a82.39,82.39,0,0,1-1.68-13.14q-3.33-.34-6.59-.94" transform="translate(21.17 1.77)"/>
      <path class="cls-5" d="M298.15,43.76a80.91,80.91,0,0,1-37,23.27,81.08,81.08,0,0,0,24.52,19.34,80.11,80.11,0,0,1,40.39-18.8,79.66,79.66,0,0,0-3-14.72,80.27,80.27,0,0,1-25-9.09" transform="translate(21.17 1.77)"/>
      <path class="cls-5" d="M398.78,27.25h-.62a80.62,80.62,0,0,1-60.25,27q-4.16,0-8.21-.41a82.39,82.39,0,0,0,1.68,13.14q3.48-.3,7-.3h0a79.94,79.94,0,0,1,36.91,9,81.09,81.09,0,0,0,17.6-21.47,83.69,83.69,0,0,1,5.84-26.87" transform="translate(21.17 1.77)"/>
      <path class="cls-6" d="M402.34,27.25h-3.56a83.69,83.69,0,0,0-5.84,26.87,80.4,80.4,0,0,0,9.4-26.87" transform="translate(21.17 1.77)"/>
      <path class="cls-5" d="M332.88,27.25h-23a79.33,79.33,0,0,1,13.19,25.6q3.25.6,6.59.94c-.05-1.24-.08-2.49-.08-3.74a81,81,0,0,1,3.26-22.8" transform="translate(21.17 1.77)"/>
      <path class="cls-6" d="M309.92,27.25h-.19a81.15,81.15,0,0,1-11.58,16.51,80.27,80.27,0,0,0,25,9.09,79.33,79.33,0,0,0-13.19-25.6" transform="translate(21.17 1.77)"/>
      <path class="cls-6" d="M398.16,27.25H332.88a81,81,0,0,0-3.26,22.8c0,1.25,0,2.5.08,3.74q4.05.41,8.21.41a80.62,80.62,0,0,0,60.25-26.95" transform="translate(21.17 1.77)"/>
      <path class="cls-6" d="M277.66,27.25h-35A80.51,80.51,0,0,0,261.16,67a80.91,80.91,0,0,0,37-23.27,80.85,80.85,0,0,1-20.49-16.51" transform="translate(21.17 1.77)"/>
      <path class="cls-7" d="M309.73,27.25H277.66a80.85,80.85,0,0,0,20.49,16.51,81.15,81.15,0,0,0,11.58-16.51" transform="translate(21.17 1.77)"/>
      <path class="cls-5" d="M166.76,27.25H129a198.76,198.76,0,0,1,28.08,44.43c1.4.07,2.8.11,4.21.11,1.93,0,3.83-.07,5.73-.2a79.32,79.32,0,0,1,8.3-31.35,80.17,80.17,0,0,1-8.57-13" transform="translate(21.17 1.77)"/>
      <path class="cls-6" d="M175.33,40.24A79.32,79.32,0,0,0,167,71.59a80.44,80.44,0,0,0,34.09-10.28,81.28,81.28,0,0,1-25.79-21.07" transform="translate(21.17 1.77)"/>
      <path class="cls-6" d="M129,27.25h-25.5a73.66,73.66,0,0,0-13.78,1.33,80.87,80.87,0,0,0,67.36,43.1A198.76,198.76,0,0,0,129,27.25" transform="translate(21.17 1.77)"/>
      <path class="cls-6" d="M183.49,27.25H166.76a80.17,80.17,0,0,0,8.57,13,80.61,80.61,0,0,1,8.16-13" transform="translate(21.17 1.77)"/>
      <path class="cls-6" d="M233.55,27.25h-4c.64,1.35,1.25,2.71,1.82,4.09q1.16-2,2.21-4.09" transform="translate(21.17 1.77)"/>
      <path class="cls-7" d="M229.52,27.25h-46a80.61,80.61,0,0,0-8.16,13,81.28,81.28,0,0,0,25.79,21.07,81.22,81.22,0,0,0,30.22-30c-.57-1.38-1.18-2.74-1.82-4.09" transform="translate(21.17 1.77)"/>
    </g>
    <g class="cls-3">
      <path class="cls-4" d="M341.9,92.9a80.92,80.92,0,0,1-17.73,2.32A79.88,79.88,0,0,1,258.5,154.9a80,80,0,0,0,21.81,47.5,80.06,80.06,0,0,1,58.11-24.88h0a81.05,81.05,0,0,1,8.43.44,80.78,80.78,0,0,1,67.74-36.71c1.32,0,2.64,0,3.95.1a80.53,80.53,0,0,0-1.46-10.73q-3.29.27-6.63.27a80.77,80.77,0,0,1-68.56-38" transform="translate(21.17 1.77)"/>
      <path class="cls-5" d="M414.6,141.25A80.78,80.78,0,0,0,346.86,178a80.1,80.1,0,0,1,49.69,24.44A80.1,80.1,0,0,0,418.75,147h0c0-1.88-.07-3.75-.2-5.59-1.31-.06-2.63-.1-3.95-.1" transform="translate(21.17 1.77)"/>
      <path class="cls-5" d="M285.68,86.37A80.14,80.14,0,0,0,258.11,147v0q0,4,.39,7.93a79.88,79.88,0,0,0,65.67-59.68l-1.65,0a80.46,80.46,0,0,1-36.84-8.87" transform="translate(21.17 1.77)"/>
      <path class="cls-5" d="M375.34,75.59A80.61,80.61,0,0,1,341.9,92.9a80.77,80.77,0,0,0,68.56,38q3.35,0,6.63-.27a80.48,80.48,0,0,0-41.75-55" transform="translate(21.17 1.77)"/>
      <path class="cls-5" d="M338.43,177.52h0a80.06,80.06,0,0,0-58.11,24.88,80.13,80.13,0,0,0,53.61,24.76c-.1-1.68-.16-3.37-.16-5.07A80.47,80.47,0,0,1,346.86,178a81.05,81.05,0,0,0-8.43-.44" transform="translate(21.17 1.77)"/>
      <path class="cls-6" d="M346.86,178a80.47,80.47,0,0,0-13.1,44.13c0,1.7.06,3.39.16,5.07,1.49.08,3,.12,4.51.12h0a80.09,80.09,0,0,0,58.11-24.88A80.1,80.1,0,0,0,346.86,178" transform="translate(21.17 1.77)"/>
      <path class="cls-5" d="M331.38,66.93c-1.78.16-3.56.37-5.31.64a80.28,80.28,0,0,1,.44,8.39h0a79.93,79.93,0,0,1-2.34,19.26A80.92,80.92,0,0,0,341.9,92.9a80.34,80.34,0,0,1-10.52-26" transform="translate(21.17 1.77)"/>
      <path class="cls-6" d="M326.07,67.57a80.11,80.11,0,0,0-40.39,18.8,80.46,80.46,0,0,0,36.84,8.87l1.65,0A79.93,79.93,0,0,0,326.51,76h0a80.28,80.28,0,0,0-.44-8.39" transform="translate(21.17 1.77)"/>
      <path class="cls-6" d="M338.43,66.63h0q-3.56,0-7,.3a80.34,80.34,0,0,0,10.52,26,80.61,80.61,0,0,0,33.44-17.31,79.94,79.94,0,0,0-36.91-9" transform="translate(21.17 1.77)"/>
      <path class="cls-4" d="M491,192l-1,1.09a80.89,80.89,0,0,1-13.95,81.37A81,81,0,0,0,536.89,325V219.45A80.8,80.8,0,0,1,491,192" transform="translate(21.17 1.77)"/>
      <path class="cls-5" d="M490.09,193.13a81,81,0,0,0-13.95,81.37,80.89,80.89,0,0,0,13.95-81.37" transform="translate(21.17 1.77)"/>
    </g>
    <g class="cls-3">
      <path class="cls-8" d="M526.88,63.75h0a73.31,73.31,0,0,1,10,37.09v16.1h0V150.3h0v15.75h0v53.4h0V100.84a73.31,73.31,0,0,0-10-37.09" transform="translate(21.17 1.77)"/>
      <path class="cls-4" d="M536.89,150.3a81.13,81.13,0,0,1-63.42,3.9,80.4,80.4,0,0,0,6.24,20,80,80,0,0,1,8.28,14c1,1.32,2,2.62,3.05,3.88a80.67,80.67,0,0,1,45.85-26V150.3" transform="translate(21.17 1.77)"/>
      <path class="cls-5" d="M479.71,174.18a81.67,81.67,0,0,0,8.28,14,80,80,0,0,0-8.28-14" transform="translate(21.17 1.77)"/>
      <path class="cls-5" d="M536.89,116.94a83.69,83.69,0,0,1-60.11,25.35c-1.51,0-3,0-4.49-.12a82.13,82.13,0,0,0,1.18,12,81.13,81.13,0,0,0,63.42-3.9V116.94" transform="translate(21.17 1.77)"/>
      <path class="cls-6" d="M526.88,63.75a80.89,80.89,0,0,0-54.61,76.49c0,.65,0,1.29,0,1.93,1.49.08,3,.12,4.49.12a83.69,83.69,0,0,0,60.11-25.35v-16.1a73.31,73.31,0,0,0-10-37.09" transform="translate(21.17 1.77)"/>
      <path class="cls-5" d="M536.89,166.05A80.67,80.67,0,0,0,491,192a80.8,80.8,0,0,0,45.85,27.41v-53.4" transform="translate(21.17 1.77)"/>
    </g>
    <path class="cls-9" d="M161.73,62.75a4.67,4.67,0,0,1-9.33,0h0a4.67,4.67,0,1,1,9.33,0Z" transform="translate(21.17 1.77)"/>
    <path class="cls-9" d="M250.4,75.21a4.67,4.67,0,0,1-9.33,0h0a4.67,4.67,0,0,1,9.33,0Z" transform="translate(21.17 1.77)"/>
    <path class="cls-9" d="M119.22,280.4a4.66,4.66,0,1,1-9.32,0h0a4.66,4.66,0,1,1,9.32,0Z" transform="translate(21.17 1.77)"/>
    <path class="cls-9" d="M419,224a4.67,4.67,0,1,1-9.33,0h0a4.67,4.67,0,0,1,9.33,0Z" transform="translate(21.17 1.77)"/>
    <path class="cls-9" d="M415.28,49.56a4.66,4.66,0,1,1-9.32,0h0a4.66,4.66,0,1,1,9.32,0Z" transform="translate(21.17 1.77)"/>
    <path class="cls-9" d="M479.77,58.35a4.67,4.67,0,1,1-9.33,0h0a4.67,4.67,0,0,1,9.33,0Z" transform="translate(21.17 1.77)"/>
    <path class="cls-9" d="M505.42,76.67a4.67,4.67,0,1,1-9.33,0h0a4.67,4.67,0,0,1,9.33,0Z" transform="translate(21.17 1.77)"/>
    <path class="cls-9" d="M57.26,459.82a4.67,4.67,0,1,1-9.33,0h0a4.67,4.67,0,1,1,9.33,0Z" transform="translate(21.17 1.77)"/>
    <g class="cls-3">
      <polyline class="cls-9" points="177.55 64.21 135.04 284.06 137.06 284.45 179.56 64.6"/>
      <polyline class="cls-9" points="266.59 76.93 357.46 149.48 358.74 147.88 267.87 75.33"/>
      <polyline class="cls-9" points="435.78 224.92 335.39 120.12 333.91 121.54 434.3 226.34"/>
      <polyline class="cls-9" points="178.41 66.16 267.82 78.61 268.1 76.58 178.7 64.12"/>
      <polyline class="cls-9" points="136.75 282.81 315.56 116.45 314.16 114.95 135.35 281.3"/>
      <polyline class="cls-9" points="135.81 278.79 72.79 461.26 74.73 461.93 137.75 279.46"/>
      <polyline class="cls-9" points="434.6 225.43 375.98 253.28 376.86 255.13 435.48 227.28"/>
      <polygon class="cls-9" points="374.85 257.58 135.7 281.06 18.96 358.88 20.1 360.59 136.41 283.05 375.05 259.63 374.85 257.58 374.85 257.58 374.85 257.58"/>
      <polyline class="cls-9" points="135.28 281.3 7.77 162.59 6.38 164.09 133.89 282.81"/>
      <polyline class="cls-9" points="178.81 64.23 0 158.76 0.96 160.58 179.77 66.05"/>
      <polyline class="cls-9" points="266.26 77.21 287.51 137.3 289.44 136.61 268.19 76.52"/>
      <polyline class="cls-9" points="177.98 66.72 268.86 127.55 270 125.84 179.13 65.02"/>
      <polyline class="cls-9" points="434.15 225.91 577.79 247.89 578.1 245.86 434.46 223.88"/>
      <polyline class="cls-9" points="521.46 81.92 568.37 137.62 569.93 136.29 523.03 80.6"/>
      <polyline class="cls-9" points="495.94 60.8 521.59 82.05 522.9 80.47 497.25 59.22"/>
      <polyline class="cls-9" points="431.27 51.36 369.71 139.3 371.4 140.47 432.95 52.54"/>
      <polyline class="cls-9" points="496.02 59.16 370.71 144.17 371.86 145.87 497.18 60.86"/>
      <polyline class="cls-9" points="179.57 64.25 170.78 7.82 168.75 8.14 177.54 64.56"/>
      <polyline class="cls-9" points="432.7 52.96 497.19 61.76 497.47 59.73 432.98 50.93"/>
      <polyline class="cls-9" points="178.79 65.48 200.77 3.19 198.84 2.51 176.85 64.8"/>
      <polyline class="cls-9" points="268.74 77.66 212.31 12.44 210.76 13.78 267.18 79"/>
      <polyline class="cls-9" points="431.57 50.34 315.79 121.42 316.86 123.17 432.65 52.09"/>
      <polyline class="cls-9" points="523.13 79.59 543.65 45.14 541.89 44.09 521.37 78.54"/>
      <polyline class="cls-9" points="267.22 77.58 325.85 18.23 324.39 16.78 265.76 76.14"/>
      <polyline class="cls-9" points="433.1 51.49 442.62 17.78 440.65 17.23 431.12 50.94"/>
      <polyline class="cls-9" points="522.39 81.54 562.7 75.68 562.4 73.65 522.1 79.51"/>
      <polyline class="cls-9" points="268.12 76.64 306.96 8.49 305.18 7.47 266.33 75.62"/>
      <polyline class="cls-9" points="432.53 52.88 497.75 23.57 496.91 21.7 431.69 51.01"/>
      <polyline class="cls-9" points="267.43 76.45 235.92 4.63 234.04 5.46 265.55 77.28"/>
      <polyline class="cls-9" points="497.86 59.13 408.45 5.63 407.4 7.39 496.81 60.89"/>
      <polyline class="cls-9" points="267.13 78.4 359.46 5.85 358.2 4.24 265.86 76.79"/>
      <polyline class="cls-9" points="304.07 113.18 347.31 13.52 345.43 12.7 302.19 112.36"/>
      <polyline class="cls-9" points="522 81.52 574.03 94.71 574.53 92.72 522.5 79.53"/>
      <polyline class="cls-9" points="498.88 60.12 457.84 6.62 456.21 7.87 497.25 61.37"/>
      <polyline class="cls-9" points="524.51 80.61 458.55 0 456.96 1.3 522.92 81.91"/>
      <polyline class="cls-9" points="496.59 61.77 566.21 62.5 566.23 60.45 496.61 59.72"/>
      <polyline class="cls-9" points="431.79 51.74 354.84 18.03 354.02 19.91 430.97 53.62"/>
      <polyline class="cls-9" points="496.54 61.52 540.51 23.41 539.16 21.86 495.19 59.97"/>
      <polyline class="cls-9" points="432.19 52.05 399.94 11.01 398.33 12.28 430.57 53.31"/>
    </g>
    <path class="cls-9" d="M230.15,143.82H320.3a12.42,12.42,0,0,1,12.45,12.44V298.8a12.42,12.42,0,0,1-12.45,12.44H230.15V143.82Zm-42.51-40.91V463.53h42.51V353.69h89.13a55.75,55.75,0,0,0,55.91-55.91V158.89a55.81,55.81,0,0,0-55.91-56Z" transform="translate(21.17 1.77)"/>
    <path class="cls-9" d="M338.39,421.72,364,437.11l-25.65,14.62v-30Zm9.87-18.34a33.35,33.35,0,1,0,33.34,33.35,33.35,33.35,0,0,0-33.34-33.35Z" transform="translate(21.17 1.77)"/>
    <path class="cls-9" d="M410.2,425.38h23.47v23.47H410.2V425.38Zm11.35-22a33.35,33.35,0,1,0,33.35,33.35,33.35,33.35,0,0,0-33.35-33.35Z" transform="translate(21.17 1.77)"/>
  </g>
</svg>
