<svg id="b6e99dc3-6104-46cd-adfa-da7b7f060455" data-name="Layer 1" xmlns="http://www.w3.org/2000/svg" width="395.22" height="395.28" viewBox="0 0 395.22 395.28"><title>Unity</title><path d="M256.21,314.42c-6.28,0-12.57.21-18.84-.07-3.93-.18-6.35,1-8.33,4.61-5.94,10.69-12.35,21.12-18.36,31.77a11,11,0,0,1-7.41,5.83q-75.6,19.51-151.14,39.28c-.64.16-1.27.34-1.92.49-4.34,1-4.75.88-6-3.4-3-10.5-5.84-21-8.73-31.54C24.94,323,14.44,284.56,3.71,246.19c-1.26-4.53-.89-8.09,1.67-12.08,6.59-10.3,12.67-20.93,19.14-31.31,1.64-2.63,1.56-4.63,0-7.21-6.8-11-13.32-22.08-20.13-33a9.61,9.61,0,0,1-1.08-8.4Q23.46,81.27,43.47,8.34C45.65.41,45.09.76,53.18,2.87q74.85,19.52,149.69,39a11.68,11.68,0,0,1,7.91,6c6,10.65,12.36,21.12,18.38,31.77,1.77,3.13,4,4.36,7.54,4.3,12.89-.21,25.79-.07,38.69-.26a10.85,10.85,0,0,1,8.34,3.41c13.19,13,26.51,25.87,39.78,38.78Q359.09,160.4,394.65,195c4.51,4.39,4.48,4.41-.16,8.62-.86.78-1.7,1.57-2.53,2.38Q360,237.17,328.05,268.34c-14.81,14.41-29.74,28.7-44.54,43.12a9.61,9.61,0,0,1-7.46,3.09c-6.61-.17-13.22-.05-19.84-.05Zm57.92-95.1c-1.21-.06-2-.13-2.85-.13q-65.7,0-131.4-.08c-3.48,0-5.39,1.28-7.07,4.16-8.57,14.7-17.3,29.32-26,44q-19.24,32.4-38.49,64.8c-.77,1.3-2.08,2.52-1.73,4.55.9-.15,1.54-.2,2.15-.36Q166,321.95,223.2,307.68a14.91,14.91,0,0,0,7.15-4.12q40.44-40.2,81-80.32C312.33,222.24,313.72,221.47,314.13,219.32ZM69.62,316.79c1.7-2.71,2.77-4.35,3.76-6q12.53-21.11,25-42.22C111.24,247,124,225.32,137,203.8c1.94-3.23,2.14-5.69.15-9Q104.42,140.11,71.94,85.29c-.53-.88-.76-2.33-2.71-2-.64,2-1.37,4.19-2,6.38q-15.18,52.89-30.4,105.77a14.19,14.19,0,0,0,.26,8.22q12.09,41.91,24.08,83.85C63.85,296.87,66.56,306.21,69.62,316.79ZM106,61.65a18.79,18.79,0,0,0,.84,2.24q33,55.67,66,111.34c1.77,3,4,3.88,7.27,3.88q64.72-.12,129.44-.08c1.24,0,2.66.46,3.72-.76-.39-2-2.07-3-3.31-4.2q-39.34-39.21-78.7-78.41A19.09,19.09,0,0,0,222,90.4Q166.41,76.65,110.89,62.7C109.48,62.35,108.05,62.09,106,61.65Z" transform="translate(-2.78 -1.58)"/></svg>