<svg id="Layer_1" data-name="Layer 1" xmlns="http://www.w3.org/2000/svg" width="19.63cm" height="19.63cm" viewBox="0 0 556.31 556.31">
  <defs>
    <style>
      .cls-1 {
        fill: #2e001e;
      }

      .cls-2 {
        fill: #ff2bc2;
      }

      .cls-3 {
        fill: none;
        stroke: #ff2bc2;
        stroke-miterlimit: 10;
        stroke-width: 10px;
      }
    </style>
  </defs>
  <title>xd</title>
  <path class="cls-1" d="M536.54,179.43A272.13,272.13,0,0,1,477,476.9a272.19,272.19,0,0,1-386.13,0,272.15,272.15,0,0,1,0-386.12,272.1,272.1,0,0,1,386.13,0A270.52,270.52,0,0,1,536.54,179.43ZM420.26,370.69a4.45,4.45,0,0,0,.13-1.24c-.54-7-.83-13.07-.83-18.21V181.65a1.61,1.61,0,0,0-.41-1.24,2.16,2.16,0,0,0-1.53-.41H387.53a1.42,1.42,0,0,0-1.24.54,2.21,2.21,0,0,0-.41,1.39v48.33c-2-.18-3.64-.33-4.86-.41s-2.79-.16-4.83-.16q-34.24,0-54,22.4t-19.76,55q0,37.82,19.48,56.46t49.85,18.65q23.48,0,47.5-10.77C419.85,371.21,420.16,371,420.26,370.69Zm-128.58,9.12a3.63,3.63,0,0,0-.28-2.35L239.2,276.65l49.17-93.89c.73-2,.29-3-1.39-3H257.15a2.85,2.85,0,0,0-2.07.7,3.81,3.81,0,0,0-1,1.52v.26c-3.34,6.46-6.54,13.1-9.66,19.89Q232,228.9,219.88,255.68h-.29q-12.43-27.36-25.41-54.14-4.69-10-9.38-19.61a2.56,2.56,0,0,0-1-1.8,4.69,4.69,0,0,0-2.35-.42H149.72a1.74,1.74,0,0,0-1.65,1,1.79,1.79,0,0,0,.26,2.09L197.51,280l-50.83,97.77a1.57,1.57,0,0,0-.55,1.65c.18.57.73.83,1.66.83h30.37a4,4,0,0,0,3.59-1.66q18.25-38.11,35.65-76.5h.25q18.79,39.21,36.48,76.22a3,3,0,0,0,1.24,1.81,4.44,4.44,0,0,0,2.63.69h32C290.93,380.79,291.5,380.46,291.68,379.81Z" transform="translate(-5.79 -5.69)"/>
  <path class="cls-2" d="M420.39,369.45a4.45,4.45,0,0,1-.13,1.24c-.1.29-.41.52-1,.7q-24,10.77-47.5,10.77-30.37,0-49.85-18.65t-19.48-56.46q0-32.58,19.76-55t54-22.4c2,0,3.65.05,4.83.16s2.82.23,4.86.41V181.93a2.21,2.21,0,0,1,.41-1.39,1.42,1.42,0,0,1,1.24-.54h30.09a2.16,2.16,0,0,1,1.53.41,1.61,1.61,0,0,1,.41,1.24V351.24C419.56,356.38,419.85,362.45,420.39,369.45ZM385.6,351.24l.28-92a27,27,0,0,0-10.8-1.94q-39.21,3-39.21,48,0,25.69,10.65,36.89a34.54,34.54,0,0,0,26.08,11.18A37.68,37.68,0,0,0,385.6,351.24Z" transform="translate(-5.79 -5.69)"/>
  <path class="cls-1" d="M385.88,259.27l-.28,92a37.68,37.68,0,0,1-13,2.2,34.54,34.54,0,0,1-26.08-11.18q-10.66-11.2-10.65-36.89,0-45,39.21-48A27,27,0,0,1,385.88,259.27Z" transform="translate(-5.79 -5.69)"/>
  <path class="cls-2" d="M291.4,377.46a3.63,3.63,0,0,1,.28,2.35c-.18.65-.75,1-1.65,1H258a4.44,4.44,0,0,1-2.63-.69,3,3,0,0,1-1.24-1.81q-17.72-37-36.48-76.22h-.25q-17.4,38.39-35.65,76.5a4,4,0,0,1-3.59,1.66H147.79c-.93,0-1.48-.26-1.66-.83a1.57,1.57,0,0,1,.55-1.65L197.51,280l-49.18-97.22a1.79,1.79,0,0,1-.26-2.09,1.74,1.74,0,0,1,1.65-1h31.75a4.69,4.69,0,0,1,2.35.42,2.56,2.56,0,0,1,1,1.8q4.69,9.66,9.38,19.61,13,26.78,25.41,54.14h.29q12.12-26.82,24.59-53.6c3.12-6.79,6.32-13.43,9.66-19.89v-.26a3.81,3.81,0,0,1,1-1.52,2.85,2.85,0,0,1,2.07-.7H287c1.68,0,2.12,1,1.39,3L239.2,276.65Z" transform="translate(-5.79 -5.69)"/>
  <path class="cls-3" d="M179.56,536.41A272.68,272.68,0,0,1,10.79,283.83,272.64,272.64,0,0,1,284,10.69,272.6,272.6,0,0,1,557.1,283.83,272.69,272.69,0,0,1,284,557,270.23,270.23,0,0,1,179.56,536.41Z" transform="translate(-5.79 -5.69)"/>
</svg>
