<svg id="Layer_1" data-name="Layer 1" xmlns="http://www.w3.org/2000/svg" width="476.89" height="514" viewBox="0 0 476.89 514">
  <defs>
    <style>
      .cls-1 {
        fill: #fff;
        stroke: #000;
        stroke-miterlimit: 10;
        stroke-width: 3px;
      }

      .cls-2 {
        fill: #ccc;
      }

      .cls-3 {
        fill: #999;
      }

      .cls-4 {
        fill: #666;
      }
    </style>
  </defs>
  <title>tpoint-logo</title>
  <path d="M453.52,150C439.8,125.53,441.44,97.1,457.88,74c16-22.52,43.44-36,73.37-36h303c29.93,0,57.35,13.45,73.37,36C924,97.1,925.65,125.53,911.94,150L680.11,552Z" transform="translate(-444.28 -38)"/>
  <path class="cls-1" d="M679.21,532.37,461.49,146.13c-25.56-45.66,11.61-99.39,68.76-99.39h303c57.15,0,94.32,53.73,68.76,99.39Z" transform="translate(-444.28 -38)"/>
  <path d="M907,149.27c0-8.43,1.22-15.27-8.76-15.27H466.6c-10,0-7.56,6.68-7.56,15.11h0c0,8.43-.24,15.11,9.74,15.11l172.81.32c10,0,18.08,6.84,18.08,15.27V506c0,8.44,8.51,28,18.49,28h0c10,0,17.66-19.52,17.66-28V179.81c0-8.43,8.09-15.27,18.07-15.27l181.38,0c10,0,11.68-6.81,11.68-15.24Z" transform="translate(-444.28 -38)"/>
  <circle class="cls-2" cx="171.99" cy="169.94" r="41.67"/>
  <circle class="cls-3" cx="294.33" cy="170.05" r="41.67"/>
  <circle class="cls-4" cx="234.93" cy="54.08" r="41.67"/>
</svg>
